<svg width="140" height="88" viewBox="0 0 140 88" fill="none" xmlns="http://www.w3.org/2000/svg">
<path d="M6.44801 11.4H11.8C11.976 11.4 12.032 11.304 11.968 11.112L9.11201 3.768L6.25601 11.16C6.20801 11.32 6.27201 11.4 6.44801 11.4ZM4.21601 16.416C4.18401 16.512 4.16801 16.624 4.16801 16.752C4.16801 16.864 4.23201 17 4.36001 17.16C4.48801 17.304 4.66401 17.384 4.88801 17.4L5.41601 17.448C5.62401 17.48 5.72801 17.584 5.72801 17.76C5.72801 17.984 5.60801 18.096 5.36801 18.096L3.28001 18L1.09601 18.096C0.87201 18.096 0.76001 17.992 0.76001 17.784C0.76001 17.56 0.84801 17.448 1.02401 17.448L1.48001 17.4C2.16801 17.32 2.63201 16.992 2.87201 16.416L9.04001 1.224C9.10401 1.032 9.28801 0.936004 9.59201 0.936004C9.91201 0.936004 10.112 1.032 10.192 1.224L16.336 16.416C16.544 17.008 17 17.336 17.704 17.4L18.208 17.448C18.272 17.448 18.328 17.48 18.376 17.544C18.424 17.608 18.448 17.672 18.448 17.736C18.448 17.976 18.336 18.096 18.112 18.096L15.352 18L12.88 18.096C12.656 18.096 12.544 18 12.544 17.808C12.544 17.584 12.64 17.464 12.832 17.448L13.384 17.4C13.592 17.384 13.76 17.304 13.888 17.16C14.032 17.016 14.104 16.88 14.104 16.752C14.104 16.624 14.08 16.512 14.032 16.416L12.616 12.744C12.568 12.584 12.44 12.504 12.232 12.504H6.01601C5.82401 12.504 5.69601 12.584 5.63201 12.744L4.21601 16.416Z" fill="black"/>
<path d="M31.0431 7.008V15.816C31.0431 16.328 31.2031 16.744 31.5231 17.064C31.8431 17.368 32.2271 17.52 32.6751 17.52C32.9151 17.52 33.0351 17.616 33.0351 17.808C33.0351 18.112 32.7231 18.264 32.0991 18.264C31.1551 18.264 30.3311 17.872 29.6271 17.088C29.5791 17.04 29.5311 16.984 29.4831 16.92C29.4351 16.856 29.3951 16.8 29.3631 16.752C29.2991 16.672 29.2271 16.632 29.1471 16.632C29.0831 16.632 28.9791 16.696 28.8351 16.824C27.7471 17.784 26.5071 18.264 25.1151 18.264C23.7391 18.264 22.6351 17.864 21.8031 17.064C20.9711 16.264 20.5551 15.128 20.5551 13.656V7.584C20.5551 7.264 20.4831 7.04 20.3391 6.912C20.2111 6.784 20.0031 6.72 19.7151 6.72H18.8991C18.8191 6.72 18.7391 6.688 18.6591 6.624C18.5951 6.56 18.5631 6.48 18.5631 6.384C18.5631 6.192 18.6751 6.08 18.8991 6.048L22.0671 5.736C22.1151 5.736 22.1551 5.736 22.1871 5.736C22.5071 5.736 22.6671 5.864 22.6671 6.12C22.6671 6.152 22.6271 6.248 22.5471 6.408C22.4671 6.568 22.4271 6.768 22.4271 7.008V14.04C22.4271 15.032 22.7311 15.816 23.3391 16.392C23.9631 16.952 24.7551 17.232 25.7151 17.232C26.6911 17.232 27.5071 16.872 28.1631 16.152C28.8351 15.432 29.1711 14.616 29.1711 13.704V7.584C29.1711 7.264 29.0991 7.04 28.9551 6.912C28.8271 6.784 28.6191 6.72 28.3311 6.72H27.2751C27.1951 6.72 27.1151 6.688 27.0351 6.624C26.9711 6.56 26.9391 6.48 26.9391 6.384C26.9391 6.192 27.0511 6.08 27.2751 6.048L30.6351 5.736C30.6671 5.736 30.7071 5.736 30.7551 5.736C31.0751 5.736 31.2351 5.864 31.2351 6.12C31.2351 6.152 31.2031 6.248 31.1391 6.408C31.0751 6.568 31.0431 6.768 31.0431 7.008Z" fill="black"/>
<path d="M41.9134 16.848C41.9134 17.152 41.5854 17.464 40.9294 17.784C40.2894 18.104 39.6414 18.264 38.9854 18.264C37.8174 18.264 36.9774 17.992 36.4654 17.448C35.9694 16.888 35.7214 15.96 35.7214 14.664V7.464C35.7214 7.288 35.6174 7.2 35.4094 7.2H33.9454C33.8654 7.2 33.7934 7.176 33.7294 7.128C33.6654 7.064 33.6414 6.992 33.6574 6.912L33.7294 6.288C33.7614 6.096 33.8574 6 34.0174 6H35.4574C35.6014 6 35.6734 5.912 35.6734 5.736L35.8894 2.4C35.9054 2.096 36.0574 1.944 36.3454 1.944C36.5694 1.944 36.7215 2.064 36.8014 2.304L37.5934 5.688C37.6414 5.896 37.7614 6 37.9534 6H41.5294C41.7534 6 41.8414 6.096 41.7934 6.288L41.7214 6.912C41.6894 7.104 41.5934 7.2 41.4334 7.2H37.7854C37.6574 7.2 37.5934 7.288 37.5934 7.464V14.904C37.5934 16.408 38.1774 17.16 39.3454 17.16C39.8734 17.16 40.3934 17.064 40.9054 16.872L41.6734 16.584C41.8334 16.584 41.9134 16.672 41.9134 16.848Z" fill="black"/>
<path d="M47.7293 17.448C47.9213 17.464 48.0173 17.576 48.0173 17.784C48.0173 17.992 47.8973 18.096 47.6573 18.096L45.3773 18L42.7853 18.096C42.5453 18.096 42.4253 17.992 42.4253 17.784C42.4253 17.576 42.5213 17.464 42.7133 17.448L43.3853 17.4C43.7053 17.368 43.9693 17.272 44.1773 17.112C44.3853 16.936 44.4893 16.704 44.4893 16.416V7.632C44.4893 7.312 44.4173 7.096 44.2733 6.984C44.1453 6.856 43.9293 6.792 43.6253 6.792H42.8093C42.6013 6.792 42.4973 6.688 42.4973 6.48C42.4973 6.272 42.6013 6.152 42.8093 6.12L45.9293 5.736C46.2173 5.704 46.3613 5.888 46.3613 6.288V16.416C46.3613 16.992 46.6813 17.32 47.3213 17.4L47.7293 17.448ZM44.3933 2.112C44.1853 1.904 44.0813 1.64 44.0813 1.32C44.0813 1 44.1853 0.736004 44.3933 0.528004C44.6173 0.320004 44.8893 0.216003 45.2093 0.216003C45.5293 0.216003 45.8013 0.320004 46.0253 0.528004C46.2493 0.736004 46.3613 1 46.3613 1.32C46.3613 1.64 46.2493 1.904 46.0253 2.112C45.8013 2.32 45.5293 2.424 45.2093 2.424C44.8893 2.424 44.6173 2.32 44.3933 2.112Z" fill="black"/>
<path d="M58.3874 14.904C58.3874 15.912 57.9794 16.728 57.1634 17.352C56.3634 17.96 55.3794 18.264 54.2114 18.264C53.0594 18.264 52.0994 18.128 51.3314 17.856C50.5634 17.584 50.1794 17.28 50.1794 16.944V14.856C50.1794 14.568 50.2834 14.424 50.4914 14.424C50.7154 14.424 50.8674 14.568 50.9474 14.856C51.4434 16.504 52.4834 17.328 54.0674 17.328C54.7874 17.328 55.3794 17.152 55.8434 16.8C56.3074 16.432 56.5394 15.976 56.5394 15.432C56.5394 14.888 56.3234 14.424 55.8914 14.04C55.4594 13.64 54.9314 13.296 54.3074 13.008C53.6994 12.72 53.0834 12.416 52.4594 12.096C51.8514 11.776 51.3314 11.368 50.8994 10.872C50.4674 10.36 50.2514 9.776 50.2514 9.12C50.2514 8.144 50.6274 7.336 51.3794 6.696C52.1314 6.056 53.1314 5.736 54.3794 5.736C55.2114 5.736 55.9714 5.88 56.6594 6.168C57.3474 6.44 57.6914 6.736 57.6914 7.056V8.90401C57.6914 9.19201 57.5794 9.336 57.3554 9.336C57.1314 9.336 56.9874 9.19201 56.9234 8.90401C56.4914 7.416 55.5874 6.672 54.2114 6.672C53.5874 6.672 53.0594 6.832 52.6274 7.152C52.1954 7.456 51.9794 7.872 51.9794 8.4C51.9794 8.912 52.1954 9.368 52.6274 9.768C53.0754 10.168 53.6114 10.52 54.2354 10.824C54.8754 11.112 55.5074 11.424 56.1314 11.76C56.7554 12.08 57.2834 12.512 57.7154 13.056C58.1634 13.584 58.3874 14.2 58.3874 14.904Z" fill="black"/>
<path d="M63.5086 5.736C63.7646 5.736 63.8926 5.92 63.8926 6.288V7.344C63.8926 7.424 63.9166 7.464 63.9646 7.464C64.0286 7.464 64.1086 7.416 64.2046 7.32C65.1806 6.264 66.2446 5.736 67.3966 5.736C68.2606 5.736 68.9646 5.896 69.5086 6.216C70.0686 6.52 70.5166 7.032 70.8526 7.752C70.9006 7.848 70.9486 7.896 70.9966 7.896C71.0446 7.896 71.1006 7.84 71.1646 7.728C72.1406 6.4 73.3646 5.736 74.8366 5.736C76.0686 5.736 77.0286 6.12 77.7166 6.888C78.4046 7.656 78.7486 8.768 78.7486 10.224V16.416C78.7486 16.704 78.8606 16.936 79.0846 17.112C79.3246 17.272 79.6046 17.368 79.9246 17.4L80.5726 17.448C80.7646 17.464 80.8606 17.576 80.8606 17.784C80.8606 17.992 80.7406 18.096 80.5006 18.096L77.9326 18L75.7486 18.096C75.5086 18.096 75.3886 17.992 75.3886 17.784C75.3886 17.576 75.4846 17.464 75.6766 17.448L75.9886 17.4C76.5806 17.304 76.8766 16.976 76.8766 16.416V9.888C76.8766 7.888 76.0206 6.888 74.3086 6.888C73.5086 6.888 72.8126 7.28 72.2206 8.064C71.6286 8.832 71.3326 9.624 71.3326 10.44V16.368C71.3326 16.992 71.6126 17.336 72.1726 17.4L72.5806 17.448C72.7566 17.464 72.8446 17.576 72.8446 17.784C72.8446 17.992 72.7406 18.096 72.5326 18.096L70.4206 18L68.3086 18.096C68.0686 18.096 67.9486 18 67.9486 17.808C67.9486 17.6 68.0446 17.48 68.2366 17.448L68.5966 17.4C69.1726 17.32 69.4606 16.992 69.4606 16.416V9.888C69.4606 7.888 68.6126 6.888 66.9166 6.888C66.1486 6.888 65.4526 7.264 64.8286 8.016C64.2046 8.768 63.8926 9.576 63.8926 10.44V16.416C63.8926 16.992 64.2126 17.32 64.8526 17.4L65.2606 17.448C65.4526 17.464 65.5486 17.576 65.5486 17.784C65.5486 17.992 65.4286 18.096 65.1886 18.096L62.9086 18L60.3166 18.096C60.0766 18.096 59.9566 17.992 59.9566 17.784C59.9566 17.576 60.0526 17.464 60.2446 17.448L60.9166 17.4C61.2366 17.368 61.5006 17.272 61.7086 17.112C61.9166 16.936 62.0206 16.704 62.0206 16.416V7.632C62.0206 7.312 61.9486 7.096 61.8046 6.984C61.6766 6.856 61.4606 6.792 61.1566 6.792H60.3406C60.1326 6.792 60.0286 6.688 60.0286 6.48C60.0286 6.272 60.1326 6.152 60.3406 6.12L63.4606 5.736C63.4766 5.736 63.4926 5.736 63.5086 5.736Z" fill="black"/>
<path d="M13.024 48.88C13.024 49.136 12.736 49.264 12.16 49.264C11.168 49.264 10.328 48.872 9.64001 48.088C9.52801 47.976 9.44001 47.92 9.37601 47.92C9.32801 47.92 9.24801 47.968 9.13601 48.064C8.09601 48.864 6.92801 49.264 5.63201 49.264C4.72001 49.264 3.92001 48.984 3.23201 48.424C2.54401 47.848 2.20001 47.112 2.20001 46.216C2.20001 45.08 2.69601 44.216 3.68801 43.624C4.56801 43.112 5.94401 42.712 7.81601 42.424C8.26401 42.344 8.56801 42.288 8.72801 42.256C8.93601 42.24 9.04001 42.128 9.04001 41.92V39.712C9.04001 39.056 8.81601 38.536 8.36801 38.152C7.93601 37.768 7.35201 37.576 6.61601 37.576C5.89601 37.576 5.24001 37.8 4.64801 38.248C4.07201 38.696 3.70401 39.32 3.54401 40.12C3.49601 40.36 3.36001 40.48 3.13601 40.48C2.92801 40.48 2.82401 40.36 2.82401 40.12V38.32C2.82401 38.048 2.91201 37.848 3.08801 37.72C3.93601 37.064 5.15201 36.736 6.73601 36.736C8.32001 36.736 9.43201 37.08 10.072 37.768C10.712 38.456 11.032 39.344 11.032 40.432V46.84C11.032 47.352 11.192 47.768 11.512 48.088C11.848 48.408 12.24 48.568 12.688 48.568C12.912 48.568 13.024 48.672 13.024 48.88ZM8.99201 46.648V43.648C8.99201 43.408 8.88801 43.288 8.68001 43.288C8.66401 43.288 8.64001 43.288 8.60801 43.288C5.74401 43.64 4.31201 44.52 4.31201 45.928C4.31201 46.584 4.52801 47.104 4.96001 47.488C5.39201 47.856 5.87201 48.04 6.40001 48.04C6.94401 48.04 7.41601 47.936 7.81601 47.728C8.23201 47.52 8.52801 47.312 8.70401 47.104C8.89601 46.896 8.99201 46.744 8.99201 46.648Z" fill="black"/>
<path d="M17.2898 36.736C17.5458 36.736 17.6738 36.92 17.6738 37.288V38.512C17.6738 38.592 17.6978 38.632 17.7458 38.632C17.8098 38.632 17.8898 38.584 17.9858 38.488C18.9138 37.32 20.1218 36.736 21.6098 36.736C23.1138 36.736 24.2658 37.136 25.0658 37.936C25.8658 38.72 26.2658 39.856 26.2658 41.344V47.416C26.2658 47.704 26.3778 47.936 26.6018 48.112C26.8418 48.272 27.1218 48.368 27.4418 48.4L28.0898 48.448C28.2818 48.464 28.3778 48.576 28.3778 48.784C28.3778 48.992 28.2578 49.096 28.0178 49.096L25.4498 49L23.2658 49.096C23.0258 49.096 22.9058 48.992 22.9058 48.784C22.9058 48.576 23.0018 48.464 23.1938 48.448L23.5058 48.4C24.0978 48.304 24.3938 47.976 24.3938 47.416V41.008C24.3938 40.016 24.1138 39.248 23.5538 38.704C22.9938 38.16 22.2178 37.888 21.2258 37.888C20.2498 37.888 19.4098 38.296 18.7058 39.112C18.0178 39.912 17.6738 40.704 17.6738 41.488V47.416C17.6738 47.992 17.9938 48.32 18.6338 48.4L19.0418 48.448C19.2338 48.464 19.3298 48.576 19.3298 48.784C19.3298 48.992 19.2098 49.096 18.9698 49.096L16.6898 49L14.0978 49.096C13.8578 49.096 13.7378 48.992 13.7378 48.784C13.7378 48.576 13.8338 48.464 14.0258 48.448L14.6978 48.4C15.0178 48.368 15.2818 48.272 15.4898 48.112C15.6978 47.936 15.8018 47.704 15.8018 47.416V38.632C15.8018 38.312 15.7298 38.096 15.5858 37.984C15.4578 37.856 15.2418 37.792 14.9378 37.792H14.1218C13.9138 37.792 13.8098 37.688 13.8098 37.48C13.8098 37.272 13.9138 37.152 14.1218 37.12L17.2418 36.736C17.2578 36.736 17.2738 36.736 17.2898 36.736Z" fill="black"/>
<path d="M41.0414 29.8C41.2494 29.8 41.3534 29.968 41.3534 30.304V46.864C41.3534 47.36 41.5054 47.768 41.8094 48.088C42.1294 48.408 42.4654 48.568 42.8174 48.568C43.1694 48.568 43.3454 48.672 43.3454 48.88C43.3454 49.136 43.0334 49.264 42.4094 49.264C41.3694 49.264 40.5454 48.888 39.9374 48.136C39.8414 48.008 39.7614 47.944 39.6974 47.944C39.6494 47.944 39.4574 48.056 39.1214 48.28C38.8014 48.504 38.3534 48.728 37.7774 48.952C37.2174 49.16 36.6094 49.264 35.9534 49.264C34.0494 49.264 32.5454 48.688 31.4414 47.536C30.3534 46.384 29.8094 44.928 29.8094 43.168C29.8094 41.392 30.4174 39.88 31.6334 38.632C32.8494 37.368 34.2894 36.736 35.9534 36.736C37.1694 36.736 38.2334 37.104 39.1454 37.84C39.2094 37.888 39.2814 37.912 39.3614 37.912C39.4414 37.912 39.4814 37.808 39.4814 37.6V31.72C39.4814 31.4 39.4094 31.184 39.2654 31.072C39.1374 30.944 38.9214 30.88 38.6174 30.88H37.8014C37.7214 30.88 37.6494 30.848 37.5854 30.784C37.5214 30.704 37.4894 30.624 37.4894 30.544C37.4894 30.32 37.5934 30.2 37.8014 30.184L40.9694 29.8C40.9854 29.8 41.0094 29.8 41.0414 29.8ZM39.4814 45.76V40.456C39.4814 39.736 39.1454 39.12 38.4734 38.608C37.8014 38.096 36.9854 37.84 36.0254 37.84C34.7294 37.84 33.7214 38.248 33.0014 39.064C32.2814 39.864 31.9214 40.96 31.9214 42.352C31.9214 44.208 32.3054 45.664 33.0734 46.72C33.8574 47.76 34.8574 48.28 36.0734 48.28C36.9374 48.28 37.7214 48.024 38.4254 47.512C39.1294 47 39.4814 46.416 39.4814 45.76Z" fill="black"/>
<path d="M11.392 70.76C12.4 70.888 13.296 71.352 14.08 72.152C14.88 72.936 15.28 73.968 15.28 75.248C15.28 76.528 14.8 77.64 13.84 78.584C12.88 79.528 11.688 80 10.264 80H4.79201L2.08001 80.096C1.85601 80.096 1.74401 79.968 1.74401 79.712C1.74401 79.536 1.83201 79.448 2.00801 79.448L2.70401 79.4C3.44001 79.304 3.80801 78.976 3.80801 78.416V64.784C3.80801 64.208 3.44001 63.888 2.70401 63.824L2.00801 63.752C1.83201 63.72 1.74401 63.624 1.74401 63.464C1.74401 63.224 1.85601 63.104 2.08001 63.104L5.08001 63.2H9.73601C10.984 63.2 12.024 63.584 12.856 64.352C13.688 65.12 14.104 66.016 14.104 67.04C14.104 68.064 13.832 68.88 13.288 69.488C12.744 70.08 12.112 70.488 11.392 70.712V70.76ZM11.056 69.488C11.664 68.928 11.968 68.184 11.968 67.256C11.968 66.328 11.672 65.6 11.08 65.072C10.488 64.528 9.71201 64.256 8.75201 64.256H6.73601C6.51201 64.256 6.30401 64.344 6.11201 64.52C5.93601 64.68 5.84801 64.848 5.84801 65.024V69.848C5.84801 70.168 6.00801 70.328 6.32801 70.328H8.75201C9.69601 70.328 10.464 70.048 11.056 69.488ZM9.18401 78.944C10.336 78.944 11.28 78.592 12.016 77.888C12.768 77.184 13.144 76.272 13.144 75.152C13.144 74.016 12.768 73.104 12.016 72.416C11.28 71.728 10.336 71.384 9.18401 71.384H6.25601C5.98401 71.384 5.84801 71.528 5.84801 71.816V77.984C5.84801 78.624 6.16801 78.944 6.80801 78.944H9.18401Z" fill="black"/>
<path d="M22.1356 79.448C22.3276 79.464 22.4236 79.576 22.4236 79.784C22.4236 79.992 22.3036 80.096 22.0636 80.096L19.7836 80L17.1916 80.096C16.9516 80.096 16.8316 79.992 16.8316 79.784C16.8316 79.576 16.9276 79.464 17.1196 79.448L17.7916 79.4C18.1116 79.368 18.3756 79.272 18.5836 79.112C18.7916 78.936 18.8956 78.704 18.8956 78.416V69.632C18.8956 69.312 18.8236 69.096 18.6796 68.984C18.5516 68.856 18.3356 68.792 18.0316 68.792H17.2156C17.0076 68.792 16.9036 68.688 16.9036 68.48C16.9036 68.272 17.0076 68.152 17.2156 68.12L20.3356 67.736C20.6236 67.704 20.7676 67.888 20.7676 68.288V78.416C20.7676 78.992 21.0876 79.32 21.7276 79.4L22.1356 79.448ZM18.7996 64.112C18.5916 63.904 18.4876 63.64 18.4876 63.32C18.4876 63 18.5916 62.736 18.7996 62.528C19.0236 62.32 19.2956 62.216 19.6156 62.216C19.9356 62.216 20.2076 62.32 20.4316 62.528C20.6556 62.736 20.7676 63 20.7676 63.32C20.7676 63.64 20.6556 63.904 20.4316 64.112C20.2076 64.32 19.9356 64.424 19.6156 64.424C19.2956 64.424 19.0236 64.32 18.7996 64.112Z" fill="black"/>
<path d="M27.2976 60.8C27.5536 60.8 27.6816 60.984 27.6816 61.352V78.416C27.6816 78.992 28.0016 79.32 28.6416 79.4L29.0496 79.448C29.2416 79.464 29.3376 79.576 29.3376 79.784C29.3376 79.992 29.2176 80.096 28.9776 80.096L26.6976 80L24.1056 80.096C23.8656 80.096 23.7456 79.992 23.7456 79.784C23.7456 79.576 23.8416 79.464 24.0336 79.448L24.7056 79.4C25.0256 79.368 25.2896 79.272 25.4976 79.112C25.7056 78.936 25.8096 78.704 25.8096 78.416V62.696C25.8096 62.376 25.7376 62.16 25.5936 62.048C25.4656 61.92 25.2496 61.856 24.9456 61.856H24.1296C23.9216 61.856 23.8176 61.752 23.8176 61.544C23.8176 61.336 23.9216 61.216 24.1296 61.184L27.2496 60.8C27.2656 60.8 27.2816 60.8 27.2976 60.8Z" fill="black"/>
<path d="M35.9637 79.448C36.1557 79.464 36.2517 79.576 36.2517 79.784C36.2517 79.992 36.1317 80.096 35.8917 80.096L33.6117 80L31.0197 80.096C30.7797 80.096 30.6597 79.992 30.6597 79.784C30.6597 79.576 30.7557 79.464 30.9477 79.448L31.6197 79.4C31.9397 79.368 32.2037 79.272 32.4117 79.112C32.6197 78.936 32.7237 78.704 32.7237 78.416V69.632C32.7237 69.312 32.6517 69.096 32.5077 68.984C32.3797 68.856 32.1637 68.792 31.8597 68.792H31.0437C30.8357 68.792 30.7317 68.688 30.7317 68.48C30.7317 68.272 30.8357 68.152 31.0437 68.12L34.1637 67.736C34.4517 67.704 34.5957 67.888 34.5957 68.288V78.416C34.5957 78.992 34.9157 79.32 35.5557 79.4L35.9637 79.448ZM32.6277 64.112C32.4197 63.904 32.3157 63.64 32.3157 63.32C32.3157 63 32.4197 62.736 32.6277 62.528C32.8517 62.32 33.1237 62.216 33.4437 62.216C33.7637 62.216 34.0357 62.32 34.2597 62.528C34.4837 62.736 34.5957 63 34.5957 63.32C34.5957 63.64 34.4837 63.904 34.2597 64.112C34.0357 64.32 33.7637 64.424 33.4437 64.424C33.1237 64.424 32.8517 64.32 32.6277 64.112Z" fill="black"/>
<path d="M41.1258 67.736C41.3818 67.736 41.5098 67.92 41.5098 68.288V69.512C41.5098 69.592 41.5338 69.632 41.5818 69.632C41.6458 69.632 41.7258 69.584 41.8218 69.488C42.7498 68.32 43.9578 67.736 45.4458 67.736C46.9498 67.736 48.1018 68.136 48.9018 68.936C49.7018 69.72 50.1018 70.856 50.1018 72.344V78.416C50.1018 78.704 50.2138 78.936 50.4378 79.112C50.6778 79.272 50.9578 79.368 51.2778 79.4L51.9258 79.448C52.1178 79.464 52.2138 79.576 52.2138 79.784C52.2138 79.992 52.0938 80.096 51.8538 80.096L49.2858 80L47.1018 80.096C46.8618 80.096 46.7418 79.992 46.7418 79.784C46.7418 79.576 46.8378 79.464 47.0298 79.448L47.3418 79.4C47.9338 79.304 48.2298 78.976 48.2298 78.416V72.008C48.2298 71.016 47.9498 70.248 47.3898 69.704C46.8298 69.16 46.0538 68.888 45.0618 68.888C44.0858 68.888 43.2458 69.296 42.5418 70.112C41.8538 70.912 41.5098 71.704 41.5098 72.488V78.416C41.5098 78.992 41.8298 79.32 42.4698 79.4L42.8778 79.448C43.0698 79.464 43.1658 79.576 43.1658 79.784C43.1658 79.992 43.0458 80.096 42.8058 80.096L40.5258 80L37.9338 80.096C37.6938 80.096 37.5738 79.992 37.5738 79.784C37.5738 79.576 37.6698 79.464 37.8618 79.448L38.5338 79.4C38.8538 79.368 39.1178 79.272 39.3258 79.112C39.5338 78.936 39.6378 78.704 39.6378 78.416V69.632C39.6378 69.312 39.5658 69.096 39.4218 68.984C39.2938 68.856 39.0778 68.792 38.7738 68.792H37.9578C37.7498 68.792 37.6458 68.688 37.6458 68.48C37.6458 68.272 37.7498 68.152 37.9578 68.12L41.0778 67.736C41.0938 67.736 41.1098 67.736 41.1258 67.736Z" fill="black"/>
<path d="M65.1413 69.416H63.1493C63.0533 69.416 62.9973 69.44 62.9813 69.488C62.9653 69.536 62.9893 69.592 63.0533 69.656C63.5493 70.296 63.7973 71.104 63.7973 72.08C63.7973 73.392 63.3333 74.44 62.4053 75.224C61.4933 76.008 60.3493 76.4 58.9733 76.4C58.1893 76.4 57.6133 76.344 57.2453 76.232C56.8933 76.104 56.6213 76.096 56.4293 76.208C55.8533 76.528 55.5653 76.992 55.5653 77.6C55.5653 78 55.7333 78.328 56.0693 78.584C56.4053 78.824 56.7653 78.944 57.1493 78.944H60.6293C62.1973 78.944 63.3733 79.272 64.1573 79.928C64.9573 80.584 65.3573 81.48 65.3573 82.616C65.3573 84.024 64.7813 85.12 63.6293 85.904C62.4933 86.704 61.0853 87.104 59.4053 87.104C57.7253 87.104 56.3653 86.784 55.3253 86.144C54.2853 85.504 53.7653 84.6 53.7653 83.432C53.7653 82.648 54.0133 82 54.5093 81.488C55.0053 80.976 55.5413 80.624 56.1173 80.432C55.6533 80.32 55.2053 80.048 54.7733 79.616C54.3413 79.168 54.1253 78.632 54.1253 78.008C54.1253 77 54.6373 76.224 55.6613 75.68C55.7093 75.648 55.7333 75.608 55.7333 75.56C55.7333 75.512 55.7093 75.456 55.6613 75.392C54.6693 74.56 54.1733 73.472 54.1733 72.128C54.1733 70.784 54.6213 69.72 55.5173 68.936C56.4293 68.136 57.5573 67.736 58.9013 67.736C59.4133 67.736 59.9813 67.816 60.6053 67.976C61.2453 68.136 61.6773 68.216 61.9013 68.216H65.3573C65.5493 68.216 65.6293 68.312 65.5973 68.504L65.4773 69.128C65.4453 69.32 65.3333 69.416 65.1413 69.416ZM58.9733 75.416C59.9013 75.416 60.6133 75.144 61.1093 74.6C61.6053 74.056 61.8533 73.304 61.8533 72.344C61.8533 71.384 61.5893 70.544 61.0613 69.824C60.5493 69.088 59.8373 68.72 58.9253 68.72C58.0133 68.72 57.3173 69 56.8373 69.56C56.3573 70.104 56.1173 70.856 56.1173 71.816C56.1173 72.776 56.3573 73.616 56.8373 74.336C57.3333 75.056 58.0453 75.416 58.9733 75.416ZM59.4053 86.216C60.6053 86.216 61.5973 85.928 62.3813 85.352C63.1813 84.776 63.5813 84.072 63.5813 83.24C63.5813 82.408 63.3253 81.784 62.8133 81.368C62.3013 80.952 61.5733 80.744 60.6293 80.744H58.2293C57.3493 80.744 56.6693 80.984 56.1893 81.464C55.7093 81.944 55.4693 82.592 55.4693 83.408C55.4693 84.224 55.8213 84.896 56.5253 85.424C57.2453 85.952 58.2053 86.216 59.4053 86.216Z" fill="black"/>
<path d="M78.8322 69.008V77.816C78.8322 78.328 78.9922 78.744 79.3122 79.064C79.6322 79.368 80.0162 79.52 80.4642 79.52C80.7042 79.52 80.8242 79.616 80.8242 79.808C80.8242 80.112 80.5122 80.264 79.8882 80.264C78.9442 80.264 78.1202 79.872 77.4162 79.088C77.3682 79.04 77.3202 78.984 77.2722 78.92C77.2242 78.856 77.1842 78.8 77.1522 78.752C77.0882 78.672 77.0162 78.632 76.9362 78.632C76.8722 78.632 76.7682 78.696 76.6242 78.824C75.5362 79.784 74.2962 80.264 72.9042 80.264C71.5282 80.264 70.4242 79.864 69.5922 79.064C68.7602 78.264 68.3442 77.128 68.3442 75.656V69.584C68.3442 69.264 68.2722 69.04 68.1282 68.912C68.0002 68.784 67.7922 68.72 67.5042 68.72H66.6882C66.6082 68.72 66.5282 68.688 66.4482 68.624C66.3842 68.56 66.3522 68.48 66.3522 68.384C66.3522 68.192 66.4642 68.08 66.6882 68.048L69.8562 67.736C69.9042 67.736 69.9442 67.736 69.9762 67.736C70.2962 67.736 70.4562 67.864 70.4562 68.12C70.4562 68.152 70.4162 68.248 70.3362 68.408C70.2562 68.568 70.2162 68.768 70.2162 69.008V76.04C70.2162 77.032 70.5202 77.816 71.1282 78.392C71.7522 78.952 72.5442 79.232 73.5042 79.232C74.4802 79.232 75.2962 78.872 75.9522 78.152C76.6242 77.432 76.9602 76.616 76.9602 75.704V69.584C76.9602 69.264 76.8882 69.04 76.7442 68.912C76.6162 68.784 76.4082 68.72 76.1202 68.72H75.0642C74.9842 68.72 74.9042 68.688 74.8242 68.624C74.7602 68.56 74.7282 68.48 74.7282 68.384C74.7282 68.192 74.8402 68.08 75.0642 68.048L78.4242 67.736C78.4562 67.736 78.4962 67.736 78.5442 67.736C78.8642 67.736 79.0242 67.864 79.0242 68.12C79.0242 68.152 78.9922 68.248 78.9282 68.408C78.8642 68.568 78.8322 68.768 78.8322 69.008Z" fill="black"/>
<path d="M93.0865 79.88C93.0865 80.136 92.7985 80.264 92.2225 80.264C91.2305 80.264 90.3905 79.872 89.7025 79.088C89.5905 78.976 89.5025 78.92 89.4385 78.92C89.3905 78.92 89.3105 78.968 89.1985 79.064C88.1585 79.864 86.9905 80.264 85.6945 80.264C84.7825 80.264 83.9825 79.984 83.2945 79.424C82.6065 78.848 82.2625 78.112 82.2625 77.216C82.2625 76.08 82.7585 75.216 83.7505 74.624C84.6305 74.112 86.0065 73.712 87.8785 73.424C88.3265 73.344 88.6305 73.288 88.7905 73.256C88.9985 73.24 89.1025 73.128 89.1025 72.92V70.712C89.1025 70.056 88.8785 69.536 88.4305 69.152C87.9985 68.768 87.4145 68.576 86.6785 68.576C85.9585 68.576 85.3025 68.8 84.7105 69.248C84.1345 69.696 83.7665 70.32 83.6065 71.12C83.5585 71.36 83.4225 71.48 83.1985 71.48C82.9905 71.48 82.8865 71.36 82.8865 71.12V69.32C82.8865 69.048 82.9745 68.848 83.1505 68.72C83.9985 68.064 85.2145 67.736 86.7985 67.736C88.3825 67.736 89.4945 68.08 90.1345 68.768C90.7745 69.456 91.0945 70.344 91.0945 71.432V77.84C91.0945 78.352 91.2545 78.768 91.5745 79.088C91.9105 79.408 92.3025 79.568 92.7505 79.568C92.9745 79.568 93.0865 79.672 93.0865 79.88ZM89.0545 77.648V74.648C89.0545 74.408 88.9505 74.288 88.7425 74.288C88.7265 74.288 88.7025 74.288 88.6705 74.288C85.8065 74.64 84.3745 75.52 84.3745 76.928C84.3745 77.584 84.5905 78.104 85.0225 78.488C85.4545 78.856 85.9345 79.04 86.4625 79.04C87.0065 79.04 87.4785 78.936 87.8785 78.728C88.2945 78.52 88.5905 78.312 88.7665 78.104C88.9585 77.896 89.0545 77.744 89.0545 77.648Z" fill="black"/>
<path d="M97.3523 60.8C97.6083 60.8 97.7363 60.984 97.7363 61.352V78.416C97.7363 78.992 98.0563 79.32 98.6963 79.4L99.1043 79.448C99.2963 79.464 99.3923 79.576 99.3923 79.784C99.3923 79.992 99.2723 80.096 99.0323 80.096L96.7523 80L94.1603 80.096C93.9203 80.096 93.8003 79.992 93.8003 79.784C93.8003 79.576 93.8963 79.464 94.0883 79.448L94.7603 79.4C95.0803 79.368 95.3443 79.272 95.5523 79.112C95.7603 78.936 95.8643 78.704 95.8643 78.416V62.696C95.8643 62.376 95.7923 62.16 95.6483 62.048C95.5203 61.92 95.3043 61.856 95.0003 61.856H94.1843C93.9763 61.856 93.8723 61.752 93.8723 61.544C93.8723 61.336 93.9763 61.216 94.1843 61.184L97.3043 60.8C97.3203 60.8 97.3363 60.8 97.3523 60.8Z" fill="black"/>
<path d="M106.018 79.448C106.21 79.464 106.306 79.576 106.306 79.784C106.306 79.992 106.186 80.096 105.946 80.096L103.666 80L101.074 80.096C100.834 80.096 100.714 79.992 100.714 79.784C100.714 79.576 100.81 79.464 101.002 79.448L101.674 79.4C101.994 79.368 102.258 79.272 102.466 79.112C102.674 78.936 102.778 78.704 102.778 78.416V69.632C102.778 69.312 102.706 69.096 102.562 68.984C102.434 68.856 102.218 68.792 101.914 68.792H101.098C100.89 68.792 100.786 68.688 100.786 68.48C100.786 68.272 100.89 68.152 101.098 68.12L104.218 67.736C104.506 67.704 104.65 67.888 104.65 68.288V78.416C104.65 78.992 104.97 79.32 105.61 79.4L106.018 79.448ZM102.682 64.112C102.474 63.904 102.37 63.64 102.37 63.32C102.37 63 102.474 62.736 102.682 62.528C102.906 62.32 103.178 62.216 103.498 62.216C103.818 62.216 104.09 62.32 104.314 62.528C104.538 62.736 104.65 63 104.65 63.32C104.65 63.64 104.538 63.904 104.314 64.112C104.09 64.32 103.818 64.424 103.498 64.424C103.178 64.424 102.906 64.32 102.682 64.112Z" fill="black"/>
<path d="M116.676 76.904C116.676 77.912 116.268 78.728 115.452 79.352C114.652 79.96 113.668 80.264 112.5 80.264C111.348 80.264 110.388 80.128 109.62 79.856C108.852 79.584 108.468 79.28 108.468 78.944V76.856C108.468 76.568 108.572 76.424 108.78 76.424C109.004 76.424 109.156 76.568 109.236 76.856C109.732 78.504 110.772 79.328 112.356 79.328C113.076 79.328 113.668 79.152 114.132 78.8C114.596 78.432 114.828 77.976 114.828 77.432C114.828 76.888 114.612 76.424 114.18 76.04C113.748 75.64 113.22 75.296 112.596 75.008C111.988 74.72 111.372 74.416 110.748 74.096C110.14 73.776 109.62 73.368 109.188 72.872C108.756 72.36 108.54 71.776 108.54 71.12C108.54 70.144 108.916 69.336 109.668 68.696C110.42 68.056 111.42 67.736 112.668 67.736C113.5 67.736 114.26 67.88 114.948 68.168C115.636 68.44 115.98 68.736 115.98 69.056V70.904C115.98 71.192 115.868 71.336 115.644 71.336C115.42 71.336 115.276 71.192 115.212 70.904C114.78 69.416 113.876 68.672 112.5 68.672C111.876 68.672 111.348 68.832 110.916 69.152C110.484 69.456 110.268 69.872 110.268 70.4C110.268 70.912 110.484 71.368 110.916 71.768C111.364 72.168 111.9 72.52 112.524 72.824C113.164 73.112 113.796 73.424 114.42 73.76C115.044 74.08 115.572 74.512 116.004 75.056C116.452 75.584 116.676 76.2 116.676 76.904Z" fill="black"/>
<path d="M121.798 67.736C122.054 67.736 122.182 67.92 122.182 68.288V69.344C122.182 69.424 122.206 69.464 122.254 69.464C122.318 69.464 122.398 69.416 122.494 69.32C123.47 68.264 124.534 67.736 125.686 67.736C126.55 67.736 127.254 67.896 127.798 68.216C128.358 68.52 128.806 69.032 129.142 69.752C129.19 69.848 129.238 69.896 129.286 69.896C129.334 69.896 129.39 69.84 129.454 69.728C130.43 68.4 131.654 67.736 133.126 67.736C134.358 67.736 135.318 68.12 136.006 68.888C136.694 69.656 137.038 70.768 137.038 72.224V78.416C137.038 78.704 137.15 78.936 137.374 79.112C137.614 79.272 137.894 79.368 138.214 79.4L138.862 79.448C139.054 79.464 139.15 79.576 139.15 79.784C139.15 79.992 139.03 80.096 138.79 80.096L136.222 80L134.038 80.096C133.798 80.096 133.678 79.992 133.678 79.784C133.678 79.576 133.774 79.464 133.966 79.448L134.278 79.4C134.87 79.304 135.166 78.976 135.166 78.416V71.888C135.166 69.888 134.31 68.888 132.598 68.888C131.798 68.888 131.102 69.28 130.51 70.064C129.918 70.832 129.622 71.624 129.622 72.44V78.368C129.622 78.992 129.902 79.336 130.462 79.4L130.87 79.448C131.046 79.464 131.134 79.576 131.134 79.784C131.134 79.992 131.03 80.096 130.822 80.096L128.71 80L126.598 80.096C126.358 80.096 126.238 80 126.238 79.808C126.238 79.6 126.334 79.48 126.526 79.448L126.886 79.4C127.462 79.32 127.75 78.992 127.75 78.416V71.888C127.75 69.888 126.902 68.888 125.206 68.888C124.438 68.888 123.742 69.264 123.118 70.016C122.494 70.768 122.182 71.576 122.182 72.44V78.416C122.182 78.992 122.502 79.32 123.142 79.4L123.55 79.448C123.742 79.464 123.838 79.576 123.838 79.784C123.838 79.992 123.718 80.096 123.478 80.096L121.198 80L118.606 80.096C118.366 80.096 118.246 79.992 118.246 79.784C118.246 79.576 118.342 79.464 118.534 79.448L119.206 79.4C119.526 79.368 119.79 79.272 119.998 79.112C120.206 78.936 120.31 78.704 120.31 78.416V69.632C120.31 69.312 120.238 69.096 120.094 68.984C119.966 68.856 119.75 68.792 119.446 68.792H118.63C118.422 68.792 118.318 68.688 118.318 68.48C118.318 68.272 118.422 68.152 118.63 68.12L121.75 67.736C121.766 67.736 121.782 67.736 121.798 67.736Z" fill="black"/>
</svg>
